<?xml version="1.0" encoding="UTF-8" standalone="no"?>
<svg
   xmlns:dc="http://purl.org/dc/elements/1.1/"
   xmlns:cc="http://creativecommons.org/ns#"
   xmlns:rdf="http://www.w3.org/1999/02/22-rdf-syntax-ns#"
   xmlns:svg="http://www.w3.org/2000/svg"
   xmlns="http://www.w3.org/2000/svg"
   xmlns:sodipodi="http://sodipodi.sourceforge.net/DTD/sodipodi-0.dtd"
   xmlns:inkscape="http://www.inkscape.org/namespaces/inkscape"
   width="1000"
   height="1000"
   viewBox="0 0 264.58333 264.58334"
   version="1.1"
   id="svg8"
   sodipodi:docname="Samuele Gervasio.svg"
   inkscape:export-filename="/home/samuele/Immagini/Loghi/Samuele Gervasio - sfondo bianco.png"
   inkscape:export-xdpi="192"
   inkscape:export-ydpi="192"
   inkscape:version="1.0.1 (0767f8302a, 2020-10-17)">
  <title
     id="title20">Logo Samuele Gervasio</title>
  <defs
     id="defs2" />
  <sodipodi:namedview
     id="base"
     pagecolor="#ffffff"
     bordercolor="#666666"
     borderopacity="1.0"
     inkscape:pageopacity="0.0"
     inkscape:pageshadow="2"
     inkscape:zoom="0.70710678"
     inkscape:cx="431.72837"
     inkscape:cy="525.46746"
     inkscape:document-units="px"
     inkscape:current-layer="layer3"
     inkscape:document-rotation="0"
     showgrid="true"
     units="px"
     inkscape:pagecheckerboard="true"
     inkscape:window-width="1920"
     inkscape:window-height="1016"
     inkscape:window-x="0"
     inkscape:window-y="27"
     inkscape:window-maximized="1">
    <inkscape:grid
       type="xygrid"
       id="grid18"
       empspacing="5"
       spacingx="0.26458333"
       originx="132.29166"
       originy="132.29167" />
  </sodipodi:namedview>
  <metadata
     id="metadata5">
    <rdf:RDF>
      <cc:Work
         rdf:about="">
        <dc:format>image/svg+xml</dc:format>
        <dc:type
           rdf:resource="http://purl.org/dc/dcmitype/StillImage" />
        <dc:title>Logo Samuele Gervasio</dc:title>
      </cc:Work>
    </rdf:RDF>
  </metadata>
  <g
     inkscape:label="Livello 1"
     inkscape:groupmode="layer"
     id="layer1"
     style="display:inline" />
  <g
     inkscape:groupmode="layer"
     id="layer8"
     inkscape:label="sfondo"
     style="display:inline;opacity:0.997">
    <rect
       style="fill:#ffffff;stroke-width:2.64583;stroke-miterlimit:4;stroke-dasharray:none"
       id="rect1036"
       width="264.58334"
       height="264.58334"
       x="-4.9999999e-06"
       y="3.3333333e-06" />
  </g>
  <g
     inkscape:groupmode="layer"
     id="layer2"
     inkscape:label="S"
     style="display:inline">
    <path
       style="fill:none;stroke:#000000;stroke-width:2.64583;stroke-linecap:butt;stroke-linejoin:miter;stroke-miterlimit:4;stroke-dasharray:none;stroke-opacity:1"
       d="M 5.2916616,259.29167 H 132.29166"
       id="path38" />
    <path
       style="fill:none;stroke:#000000;stroke-width:2.64583;stroke-linecap:butt;stroke-linejoin:miter;stroke-miterlimit:4;stroke-dasharray:none;stroke-opacity:1"
       d="m 132.29166,259.29167 c 0,0 127,0 127,-63.5 0,-63.5 -127,-63.5 -127,-63.5"
       id="path42" />
    <path
       style="fill:none;stroke:#000000;stroke-width:2.64583;stroke-linecap:butt;stroke-linejoin:miter;stroke-miterlimit:4;stroke-dasharray:none;stroke-opacity:1"
       d="m 132.29166,5.29167 h 127"
       id="path46" />
    <path
       style="fill:none;stroke:#000000;stroke-width:2.64583;stroke-linecap:butt;stroke-linejoin:miter;stroke-miterlimit:4;stroke-dasharray:none;stroke-opacity:1"
       d="m 132.29166,5.29167 c 0,0 -126.9999984,0 -126.9999984,63.499998 0,63.500002 126.9999984,63.500002 126.9999984,63.500002"
       id="path192" />
  </g>
  <g
     inkscape:groupmode="layer"
     id="layer3"
     inkscape:label="A"
     style="display:inline">
    <path
       style="fill:none;stroke:#000000;stroke-width:2.64583;stroke-linecap:butt;stroke-linejoin:bevel;stroke-miterlimit:4;stroke-dasharray:none;stroke-opacity:1"
       d="m 5.2916616,259.29167 126.9999984,-254 127,254"
       id="path34" />
    <path
       style="fill:none;stroke:#000000;stroke-width:2.64583;stroke-linecap:butt;stroke-linejoin:miter;stroke-miterlimit:4;stroke-dasharray:none;stroke-opacity:1"
       d="M 68.791661,132.29167 H 195.79166"
       id="path36" />
  </g>
  <g
     inkscape:groupmode="layer"
     id="layer4"
     inkscape:label="M"
     style="display:inline">
    <path
       style="fill:none;stroke:#000000;stroke-width:2.64583;stroke-linecap:square;stroke-linejoin:bevel;stroke-miterlimit:4;stroke-dasharray:none;stroke-opacity:1"
       d="M 5.2916616,259.29167 V 5.291669 L 132.29166,132.29167 l 127,-127.0000008 V 259.29167"
       id="path1072" />
  </g>
  <g
     inkscape:groupmode="layer"
     id="layer5"
     inkscape:label="U"
     style="display:inline">
    <path
       style="fill:none;stroke:#000000;stroke-width:2.64583;stroke-linecap:butt;stroke-linejoin:miter;stroke-miterlimit:4;stroke-dasharray:none;stroke-opacity:1"
       d="m 5.2916616,5.29167 v 127 c 0,0 0,127 126.9999984,127 127,0 127,-127 127,-127 v -127"
       id="path54" />
  </g>
  <g
     inkscape:groupmode="layer"
     id="layer6"
     inkscape:label="E"
     style="display:inline">
    <path
       style="fill:none;stroke:#000000;stroke-width:2.64583;stroke-linecap:square;stroke-linejoin:miter;stroke-miterlimit:4;stroke-dasharray:none;stroke-opacity:1"
       d="M 5.2916616,5.29167 H 259.29166"
       id="path56" />
    <path
       style="fill:none;stroke:#000000;stroke-width:2.64583;stroke-linecap:square;stroke-linejoin:miter;stroke-miterlimit:4;stroke-dasharray:none;stroke-opacity:1"
       d="m 5.2916616,5.29167 v 254"
       id="path58" />
    <path
       style="fill:none;stroke:#000000;stroke-width:2.64583;stroke-linecap:butt;stroke-linejoin:miter;stroke-miterlimit:4;stroke-dasharray:none;stroke-opacity:1"
       d="M 5.2916616,259.29167 H 259.29166"
       id="path60" />
    <path
       style="fill:none;stroke:#000000;stroke-width:2.64583;stroke-linecap:butt;stroke-linejoin:miter;stroke-miterlimit:4;stroke-dasharray:none;stroke-opacity:1"
       d="M 5.2916616,132.29167 H 259.29165"
       id="path1074" />
  </g>
  <g
     inkscape:groupmode="layer"
     id="layer7"
     inkscape:label="L"
     style="display:inline">
    <path
       style="fill:none;stroke:#000000;stroke-width:2.64583;stroke-linecap:butt;stroke-linejoin:miter;stroke-miterlimit:4;stroke-dasharray:none;stroke-opacity:1"
       d="M 5.2916616,5.29167 V 8.4568562 259.29167 H 259.29166"
       id="path64"
       sodipodi:nodetypes="cccc" />
  </g>
  <g
     inkscape:groupmode="layer"
     id="layer9"
     inkscape:label="correzioni"
     style="display:inline" />
  <path
     id="path951"
     style="fill:none;stroke-width:2.64583335;stroke-miterlimit:4;stroke-dasharray:none"
     d="m 132.29386,134.12694 c 0.0455,-10e-4 0.0898,-0.0124 0.13494,-0.0164 0.0255,-0.002 0.0505,-7.2e-4 0.0759,0.001 0.0444,0.005 0.043,0.002 0.0239,-0.081 -0.001,-0.006 -0.0114,-0.001 -0.0171,-9.1e-4 -0.0131,8.1e-4 -0.0262,0.003 -0.0392,0.004 -0.019,0.005 -0.0379,0.01 -0.0569,0.0147 -0.0177,0.005 -0.0352,0.0115 -0.0531,0.0162 -0.0128,0.003 -0.0259,0.005 -0.0389,0.008 -0.0174,0.003 -0.0323,0.007 -0.0495,0.004 -0.0197,0.002 -0.0741,0.005 -0.0857,0.0251 -0.008,0.0135 -0.003,0.0309 -0.005,0.0463 -0.008,0.0815 0.0905,-0.11396 0.0756,-0.0335 v 0 c -0.0132,0.071 0.008,0.0191 -0.0342,0.0513 -0.003,0.003 0.009,-4.3e-4 0.013,-9.4e-4 0.003,-3.6e-4 0.0241,-0.002 0.025,-0.006 0.007,7.2e-4 0.0139,0.002 0.021,0.002 0.0215,3.5e-4 0.0349,-0.003 0.0563,-0.007 0.0154,-0.003 0.0308,-0.006 0.046,-0.01 0.0323,-0.008 0.0633,-0.0212 0.0961,-0.0279 0.009,-0.001 0.0178,-0.003 0.0267,-0.004 0.002,-2.3e-4 0.005,0.001 0.005,-2.8e-4 0.003,-0.0269 -8.6e-4,-0.0543 0.003,-0.0811 2.5e-4,-0.002 0.0246,0.002 -0.006,-0.002 -0.0312,-0.003 -0.0618,-0.004 -0.093,-0.001 -0.048,0.004 -0.0374,0.006 -0.0868,0.0121 -0.0159,0.002 -0.0319,0.003 -0.0479,0.004 -0.0815,0.007 -0.0719,0.0846 0.01,0.0821 z" />
  <path
     style="fill:none;stroke-width:2.64583335;stroke-miterlimit:4;stroke-dasharray:none"
     id="path956"
     d="m 132.54304,134.30067 c -0.11342,-0.1568 -0.13527,-0.19939 -0.26721,-0.33559 -0.0263,-0.0272 -0.0531,-0.0551 -0.0855,-0.0746 -0.0633,-0.0381 -0.0789,0.009 -0.0905,0.0695 -0.002,0.0119 0.009,0.0225 0.0137,0.0337 0.016,-0.0192 0.031,-0.0393 0.0479,-0.0577 0.002,-0.002 0.006,-5e-5 0.007,-0.002 0.001,-0.002 -3.5e-4,-0.005 -5.2e-4,-0.007 -0.003,0.0169 -0.0201,0.0388 -0.008,0.0506 0.0192,0.0184 0.052,0.011 0.078,0.0166 0.0361,0.008 0.0721,0.0158 0.10812,0.0237 0.0887,0.0231 0.17865,0.0405 0.26755,0.0627 0.0126,0.003 0.0251,0.006 0.0376,0.01 0.0168,0.005 0.0147,4.8e-4 0.0167,0.009 0.001,0.003 0.003,0.005 0.004,0.008 0.004,0.006 0.009,0.0112 0.013,0.0175 0.005,0.009 0.003,0.008 6.7e-4,0.015 -0.003,0.01 -9e-5,0.01 -0.008,0.003 -0.007,0.004 -0.0505,0.0278 -0.0524,0.0286 -0.0395,0.0166 -0.0975,0.008 -0.13835,0.006 -0.0224,-7.9e-4 -0.0449,8e-4 -0.0671,-0.002 -0.0806,-0.0116 -0.1515,-0.0583 -0.20377,-0.11943 -0.0149,-0.0174 -0.0279,-0.037 -0.0362,-0.0583 -0.005,-0.0136 -0.002,-0.029 -0.003,-0.0435 0.009,-0.0288 0.0221,-0.0582 0.0498,-0.0741 0.0154,-0.009 0.0569,-0.008 0.0736,-0.009 0.0794,-0.003 0.15758,0.009 0.23162,0.0393 0.0233,0.009 0.0462,0.0207 0.067,0.035 0.01,0.007 0.0156,0.0183 0.0234,0.0275 -0.0262,0.01 -0.0302,0.0364 -0.0488,0.0569 -0.0152,0.0169 -0.017,0.0153 -0.0359,0.0223 -0.0443,0.006 -0.0896,0.012 -0.1344,0.008 -0.0109,-0.001 -0.0228,-5.5e-4 -0.0323,-0.006 -0.008,-0.005 -0.012,-0.0155 -0.018,-0.0232 -0.0174,-0.0387 -0.0246,-0.0466 -0.0288,-0.0905 -0.001,-0.0122 -0.003,-0.0433 0.0106,-0.0552 8.2e-4,-7.4e-4 0.0141,0.005 0.0147,0.005 0.003,0.001 0.005,0.003 0.008,0.004 0.0164,0.002 0.039,9.2e-4 0.0554,2.9e-4 0.0284,-0.001 0.0567,-0.002 0.0852,-0.002 0.0311,5.7e-4 0.0231,0.009 -0.008,-0.0243 -0.056,-0.0597 0.13035,0.0493 0.0811,-0.0161 v 0 c -0.009,-0.0116 -0.0149,-0.0256 -0.0262,-0.0347 -0.0113,-0.009 -0.0342,-0.007 -0.0475,-0.008 -0.0546,4e-4 -0.10934,0.006 -0.16377,-1.2e-4 -0.0138,0.004 -0.0292,0.005 -0.0416,0.0125 -0.0139,0.009 -0.0263,0.0207 -0.0348,0.0346 -0.028,0.0455 -0.0149,0.12588 0.004,0.17105 0.01,0.0235 0.0254,0.0441 0.0381,0.0661 0.0193,0.014 0.0364,0.0317 0.0578,0.042 0.0137,0.007 0.0298,0.006 0.0448,0.007 0.0145,0.001 0.0291,9.1e-4 0.0437,7.2e-4 0.0433,-5.7e-4 0.0865,-0.005 0.1283,-0.0167 0.0123,-0.007 0.0257,-0.0117 0.037,-0.0199 0.0248,-0.018 0.0569,-0.0608 0.0694,-0.0891 0.006,-0.0143 0.0146,-0.0289 0.0148,-0.0445 3.2e-4,-0.0197 -0.009,-0.0384 -0.0132,-0.0575 -0.0151,-0.0146 -0.0278,-0.032 -0.0452,-0.0437 -0.0249,-0.0167 -0.0524,-0.0296 -0.0803,-0.0405 -0.0838,-0.0327 -0.17203,-0.0463 -0.26146,-0.0427 -0.0219,0.002 -0.0595,0.003 -0.0798,0.01 -0.0498,0.0164 -0.0897,0.0555 -0.10691,0.10537 -0.007,0.0205 -0.009,0.0425 -0.0128,0.0637 0.005,0.0252 0.005,0.0519 0.0157,0.0755 0.012,0.0274 0.03,0.0523 0.0501,0.0746 0.0691,0.0768 0.15404,0.12607 0.25633,0.14076 0.0218,0.003 0.044,0.002 0.0661,0.002 0.0472,0.002 0.0955,0.007 0.14216,-0.003 0.0417,-0.009 0.0769,-0.0318 0.1115,-0.056 0.009,-0.013 0.0211,-0.0247 0.028,-0.0391 0.004,-0.008 0.003,-0.0173 0.003,-0.0261 -4.4e-4,-0.0428 -0.0221,-0.0704 -0.0493,-0.10051 -0.008,-0.005 -0.0158,-0.0119 -0.0245,-0.0164 -0.0111,-0.006 -0.0563,-0.0168 -0.0617,-0.0181 -0.0894,-0.0222 -0.17994,-0.0398 -0.26913,-0.063 -0.005,-0.001 -0.19779,-0.0447 -0.2105,-0.0419 -0.0567,0.0128 -0.0794,0.0448 -0.0553,0.0823 0.008,0.0129 0.0151,0.0375 0.0301,0.0345 0.0261,-0.005 0.0401,-0.0349 0.0601,-0.0524 -0.0173,-0.0296 0.003,-0.004 -0.0527,0.004 -0.003,4.4e-4 -0.003,-0.0124 4e-5,-0.0104 0.0276,0.0201 0.0539,0.0424 0.0777,0.0669 0.12439,0.12797 0.14782,0.17089 0.25464,0.31665 0.0484,0.066 0.12248,0.0305 0.0745,-0.0358 z" />
  <path
     style="fill:none;stroke-width:2.64583335;stroke-miterlimit:4;stroke-dasharray:none"
     id="path959"
     d="m 132.54304,134.30067 c -0.11342,-0.1568 -0.13527,-0.19939 -0.26721,-0.33559 -0.0263,-0.0272 -0.0531,-0.0551 -0.0855,-0.0746 -0.0633,-0.0381 -0.0789,0.009 -0.0905,0.0695 -0.002,0.0119 0.009,0.0225 0.0137,0.0337 0.016,-0.0192 0.031,-0.0393 0.0479,-0.0577 0.002,-0.002 0.006,-5e-5 0.007,-0.002 0.001,-0.002 -3.5e-4,-0.005 -5.2e-4,-0.007 -0.003,0.0169 -0.0201,0.0388 -0.008,0.0506 0.0192,0.0184 0.052,0.011 0.078,0.0166 0.0361,0.008 0.0721,0.0158 0.10812,0.0237 0.0887,0.0231 0.17865,0.0405 0.26755,0.0627 0.0126,0.003 0.0251,0.006 0.0376,0.01 0.0168,0.005 0.0147,4.8e-4 0.0167,0.009 0.001,0.003 0.003,0.005 0.004,0.008 0.004,0.006 0.009,0.0112 0.013,0.0175 0.005,0.009 0.003,0.008 6.7e-4,0.015 -0.003,0.01 -9e-5,0.01 -0.008,0.003 -0.007,0.004 -0.0505,0.0278 -0.0524,0.0286 -0.0395,0.0166 -0.0975,0.008 -0.13835,0.006 -0.0224,-7.9e-4 -0.0449,8e-4 -0.0671,-0.002 -0.0806,-0.0116 -0.1515,-0.0583 -0.20377,-0.11943 -0.0149,-0.0174 -0.0279,-0.037 -0.0362,-0.0583 -0.005,-0.0136 -0.002,-0.029 -0.003,-0.0435 0.009,-0.0288 0.0221,-0.0582 0.0498,-0.0741 0.0154,-0.009 0.0569,-0.008 0.0736,-0.009 0.0794,-0.003 0.15758,0.009 0.23162,0.0393 0.0233,0.009 0.0462,0.0207 0.067,0.035 0.01,0.007 0.0156,0.0183 0.0234,0.0275 -0.0262,0.01 -0.0302,0.0364 -0.0488,0.0569 -0.0152,0.0169 -0.017,0.0153 -0.0359,0.0223 -0.0443,0.006 -0.0896,0.012 -0.1344,0.008 -0.0109,-0.001 -0.0228,-5.5e-4 -0.0323,-0.006 -0.008,-0.005 -0.012,-0.0155 -0.018,-0.0232 -0.0174,-0.0387 -0.0246,-0.0466 -0.0288,-0.0905 -0.001,-0.0122 -0.003,-0.0433 0.0106,-0.0552 8.2e-4,-7.4e-4 0.0141,0.005 0.0147,0.005 0.003,0.001 0.005,0.003 0.008,0.004 0.0164,0.002 0.039,9.2e-4 0.0554,2.9e-4 0.0284,-0.001 0.0567,-0.002 0.0852,-0.002 0.0311,5.7e-4 0.0231,0.009 -0.008,-0.0243 -0.056,-0.0597 0.13035,0.0493 0.0811,-0.0161 v 0 c -0.009,-0.0116 -0.0149,-0.0256 -0.0262,-0.0347 -0.0113,-0.009 -0.0342,-0.007 -0.0475,-0.008 -0.0546,4e-4 -0.10934,0.006 -0.16377,-1.2e-4 -0.0138,0.004 -0.0292,0.005 -0.0416,0.0125 -0.0139,0.009 -0.0263,0.0207 -0.0348,0.0346 -0.028,0.0455 -0.0149,0.12588 0.004,0.17105 0.01,0.0235 0.0254,0.0441 0.0381,0.0661 0.0193,0.014 0.0364,0.0317 0.0578,0.042 0.0137,0.007 0.0298,0.006 0.0448,0.007 0.0145,0.001 0.0291,9.1e-4 0.0437,7.2e-4 0.0433,-5.7e-4 0.0865,-0.005 0.1283,-0.0167 0.0123,-0.007 0.0257,-0.0117 0.037,-0.0199 0.0248,-0.018 0.0569,-0.0608 0.0694,-0.0891 0.006,-0.0143 0.0146,-0.0289 0.0148,-0.0445 3.2e-4,-0.0197 -0.009,-0.0384 -0.0132,-0.0575 -0.0151,-0.0146 -0.0278,-0.032 -0.0452,-0.0437 -0.0249,-0.0167 -0.0524,-0.0296 -0.0803,-0.0405 -0.0838,-0.0327 -0.17203,-0.0463 -0.26146,-0.0427 -0.0219,0.002 -0.0595,0.003 -0.0798,0.01 -0.0498,0.0164 -0.0897,0.0555 -0.10691,0.10537 -0.007,0.0205 -0.009,0.0425 -0.0128,0.0637 0.005,0.0252 0.005,0.0519 0.0157,0.0755 0.012,0.0274 0.03,0.0523 0.0501,0.0746 0.0691,0.0768 0.15404,0.12607 0.25633,0.14076 0.0218,0.003 0.044,0.002 0.0661,0.002 0.0472,0.002 0.0955,0.007 0.14216,-0.003 0.0417,-0.009 0.0769,-0.0318 0.1115,-0.056 0.009,-0.013 0.0211,-0.0247 0.028,-0.0391 0.004,-0.008 0.003,-0.0173 0.003,-0.0261 -4.4e-4,-0.0428 -0.0221,-0.0704 -0.0493,-0.10051 -0.008,-0.005 -0.0158,-0.0119 -0.0245,-0.0164 -0.0111,-0.006 -0.0563,-0.0168 -0.0617,-0.0181 -0.0894,-0.0222 -0.17994,-0.0398 -0.26913,-0.063 -0.005,-0.001 -0.19779,-0.0447 -0.2105,-0.0419 -0.0567,0.0128 -0.0794,0.0448 -0.0553,0.0823 0.008,0.0129 0.0151,0.0375 0.0301,0.0345 0.0261,-0.005 0.0401,-0.0349 0.0601,-0.0524 -0.0173,-0.0296 0.003,-0.004 -0.0527,0.004 -0.003,4.4e-4 -0.003,-0.0124 4e-5,-0.0104 0.0276,0.0201 0.0539,0.0424 0.0777,0.0669 0.12439,0.12797 0.14782,0.17089 0.25464,0.31665 0.0484,0.066 0.12248,0.0305 0.0745,-0.0358 z" />
</svg>
